<svg xmlns="http://www.w3.org/2000/svg" width="12" height="8" viewBox="0 0 12 8" fill="none">
  <path
    d="M0.293762 1.00002C0.386276 0.907321 0.496165 0.833774 0.617138 0.783592C0.738111 0.733411 0.867794 0.707581 0.998762 0.707581C1.12973 0.707581 1.25941 0.733411 1.38039 0.783592C1.50136 0.833774 1.61125 0.907321 1.70376 1.00002L5.58376 4.88002L9.46376 1.00003C9.65074 0.813048 9.90434 0.708004 10.1688 0.708004C10.4332 0.708004 10.6868 0.813048 10.8738 1.00003C11.0607 1.187 11.1658 1.4406 11.1658 1.70503C11.1658 1.96945 11.0607 2.22305 10.8738 2.41003L6.28376 7.00003C6.19125 7.09273 6.08136 7.16628 5.96039 7.21646C5.83941 7.26664 5.70973 7.29247 5.57876 7.29247C5.44779 7.29247 5.31811 7.26664 5.19714 7.21646C5.07616 7.16628 4.96628 7.09273 4.87376 7.00003L0.283762 2.41002C-0.096238 2.03002 -0.0962377 1.39002 0.293762 1.00002Z"
    fill="black" />
</svg>