<svg width="24" height="24" viewBox="0 0 24 24" fill="none" xmlns="http://www.w3.org/2000/svg">
  <path fill-rule="evenodd" clip-rule="evenodd"
    d="M12 0C5.3724 0 0 5.3724 0 12C0 18.6276 5.3724 24 12 24C18.6276 24 24 18.6276 24 12C24 5.3724 18.6276 0 12 0ZM7.8 7.8C7.8 7.24845 7.90864 6.7023 8.11971 6.19273C8.33078 5.68316 8.64015 5.22016 9.03015 4.83015C9.42016 4.44015 9.88316 4.13078 10.3927 3.91971C10.9023 3.70864 11.4484 3.6 12 3.6C12.5516 3.6 13.0977 3.70864 13.6073 3.91971C14.1168 4.13078 14.5798 4.44015 14.9698 4.83015C15.3599 5.22016 15.6692 5.68316 15.8803 6.19273C16.0914 6.7023 16.2 7.24845 16.2 7.8C16.2 8.91391 15.7575 9.9822 14.9698 10.7698C14.1822 11.5575 13.1139 12 12 12C10.8861 12 9.81781 11.5575 9.03015 10.7698C8.2425 9.9822 7.8 8.91391 7.8 7.8ZM3.9336 17.208C5.9124 15.5904 8.802 14.4 12 14.4C15.198 14.4 18.0876 15.5904 20.0664 17.208C19.1965 18.5564 18.0023 19.665 16.5931 20.4323C15.1838 21.1996 13.6046 21.6011 12 21.6C10.3954 21.6011 8.81617 21.1996 7.40693 20.4323C5.99768 19.665 4.80345 18.5564 3.9336 17.208Z"
    fill="#16538E" />
</svg>
  